<svg xmlns="http://www.w3.org/2000/svg" viewBox="-10 -10 384.15 75.85" width="384" height="76" xmlns:c2pa="http://c2pa.org/manifest"><metadata><c2pa:manifest>AAAWgmp1bWIAAAAeanVtZGMycGEAEQAQgAAAqgA4m3EDYzJwYQAAABZcanVtYgAAAEdqdW1kYzJtYQARABCAAACqADibcQN1cm46YzJwYTozMTE3OGYwNC0yYTU1LTQzMzItYTQ2OC04YTAzZmMzMTMzYzkAAAADl2p1bWIAAAApanVtZGMyYXMAEQAQgAAAqgA4m3EDYzJwYS5hc3NlcnRpb25zAAAAALxqdW1iAAAARGp1bWRjYm9yABEAEIAAAKoAOJtxE2MycGEuaW5ncmVkaWVudC52MwAAAAAYYzJzaE3cv4KoG4mIIcGJMgQbdiYAAABwY2JvcqNpZGM6Zm9ybWF0bWltYWdlL3N2Zyt4bWxqaW5zdGFuY2VJRHgseG1wOmlpZDo0NGZiMzVhOS1jYTUzLTRiNDAtYjQ4Zi01YzhlZTU3OWZmOTdscmVsYXRpb25zaGlwaHBhcmVudE9mAAAB4mp1bWIAAABBanVtZGNib3IAEQAQgAAAqgA4m3ETYzJwYS5hY3Rpb25zLnYyAAAAABhjMnNoRmIMSYHLt5ma7x1Q4satdgAAAZljYm9yomdhY3Rpb25zgqJmYWN0aW9ua2MycGEub3BlbmVkanBhcmFtZXRlcnOha2luZ3JlZGllbnRzgaJjdXJseC1zZWxmI2p1bWJmPWMycGEuYXNzZXJ0aW9ucy9jMnBhLmluZ3JlZGllbnQudjNkaGFzaFggJc4SzRiazoWWfExPcvOxGZuzxk8YWMsCv4zIjPouMEukZmFjdGlvbngdY29tLmFudGhyb3BpYy5jbGF1ZGUucHJvdmlkZWRqcGFyYW1ldGVyc6F4H2NvbS5hbnRocm9waWMub3JpZ2luLWNvbmZpZGVuY2VndW5rbm93bmtkZXNjcmlwdGlvbnhmQ2xhdWRlIHByb3ZpZGVkIHRoaXMgZmlsZSBhdCB0aGUgcmVxdWVzdCBvZiBhIHVzZXIgYW5kIG1heSBoYXZlIGNyZWF0ZWQgb3IgbW9kaWZpZWQgdGhlIGZpbGUgY29udGVudHMubXNvZnR3YXJlQWdlbnShZG5hbWVmQ2xhdWRlcmFsbEFjdGlvbnNJbmNsdWRlZPUAAADIanVtYgAAAEBqdW1kY2JvcgARABCAAACqADibcRNjMnBhLmhhc2guZGF0YQAAAAAYYzJzaPQJzjthQ//xf1SCpFvqFJMAAACAY2JvcqVjYWxnZnNoYTI1NmNwYWRNAAAAAAAAAAAAAAAAAGRoYXNoWCBmm5LznZTtDQ3TbMBcWBuFxVxAA9OAM3EX1Sf2m/LvOGRuYW1lbmp1bWJmIG1hbmlmZXN0amV4Y2x1c2lvbnOBomVzdGFydBiaZmxlbmd0aBkeBAAAAj5qdW1iAAAAJ2p1bWRjMmNsABEAEIAAAKoAOJtxA2MycGEuY2xhaW0udjIAAAACD2Nib3KlY2FsZ2ZzaGEyNTZpc2lnbmF0dXJleE1zZWxmI2p1bWJmPS9jMnBhL3VybjpjMnBhOjMxMTc4ZjA0LTJhNTUtNDMzMi1hNDY4LThhMDNmYzMxMzNjOS9jMnBhLnNpZ25hdHVyZWppbnN0YW5jZUlEeCx4bXA6aWlkOjZkMDk2ZDg3LTkwNDQtNDk0MC1iM2VjLThlMjE1YTExZDk4NXJjcmVhdGVkX2Fzc2VydGlvbnODomN1cmx4LXNlbGYjanVtYmY9YzJwYS5hc3NlcnRpb25zL2MycGEuaW5ncmVkaWVudC52M2RoYXNoWCAlzhLNGJrOhZZ8TE9y87EZm7PGTxhYywK/jMiM+i4wS6JjdXJseCpzZWxmI2p1bWJmPWMycGEuYXNzZXJ0aW9ucy9jMnBhLmFjdGlvbnMudjJkaGFzaFgg8rHNC2RQnYz+O/YRhWoPOQ4BHhBueTDveQVA1cKopVqiY3VybHgpc2VsZiNqdW1iZj1jMnBhLmFzc2VydGlvbnMvYzJwYS5oYXNoLmRhdGFkaGFzaFggGgnQfJaf+CtbXruxD48ywcJvxmtsFUpOopYjVWsE8e90Y2xhaW1fZ2VuZXJhdG9yX2luZm+jZG5hbWVvQW50aHJvcGljIEZpbGVzZ3ZlcnNpb25lMS4wLjBrc3BlY1ZlcnNpb25lMi40LjAAABA4anVtYgAAAChqdW1kYzJjcwARABCAAACqADibcQNjMnBhLnNpZ25hdHVyZQAAABAIY2JvctKEWQISogEmGCFZAgowggIGMIIBjaADAgECAhRA5aAK7sI50L64g/oGQgU9Z1UTADAKBggqhkjOPQQDAzBJMRcwFQYDVQQKEw5BbnRocm9waWMsIFBCQzEuMCwGA1UEAxMlQW50aHJvcGljIENvbnRlbnQgQ3JlZGVudGlhbHMgUm9vdCBDQTAeFw0yNjA4MDcxODQzNTZaFw0yODA4MDYxOTQzNTZaMEQxFzAVBgNVBAoTDkFudGhyb3BpYywgUEJDMSkwJwYDVQQDEyBBbnRocm9waWMgQ2xhdWRlIENvbnRlbnQgU2lnbmluZzBZMBMGByqGSM49AgEGCCqGSM49AwEHA0IABJh6CmvLUBgFFNU0vUKlOVtE6djd17L5SuwX0LemFisBM3dkd/3cyjxFA3Qo5S46fX0/ihY0VZ7mfb9KF703t5OjWDBWMA4GA1UdDwEB/wQEAwIHgDAVBgNVHSUEDjAMBgorBgEEAYPoXgIBMAwGA1UdEwEB/wQCMAAwHwYDVR0jBBgwFoAUzlHiBIFOZFsj+OPEz5o+nMHXXMIwCgYIKoZIzj0EAwMDZwAwZAIwMXMdFJ4BetLLVY7ORuE9noqbbAZOZn/aArXyTwFAZfKrPzxF2vPoJNf1+UCdg1XGAjBwX1zd9WGqYkqmL5SFqw1QySjr1zJfpJM9+1rdDwSPLMOPOjKuiXjoU/pUUeG9RwmhY3BhZFkNngAAAAAAAAAAAAAAAAAAAAAAAAAAAAAAAAAAAAAAAAAAAAAAAAAAAAAAAAAAAAAAAAAAAAAAAAAAAAAAAAAAAAAAAAAAAAAAAAAAAAAAAAAAAAAAAAAAAAAAAAAAAAAAAAAAAAAAAAAAAAAAAAAAAAAAAAAAAAAAAAAAAAAAAAAAAAAAAAAAAAAAAAAAAAAAAAAAAAAAAAAAAAAAAAAAAAAAAAAAAAAAAAAAAAAAAAAAAAAAAAAAAAAAAAAAAAAAAAAAAAAAAAAAAAAAAAAAAAAAAAAAAAAAAAAAAAAAAAAAAAAAAAAAAAAAAAAAAAAAAAAAAAAAAAAAAAAAAAAAAAAAAAAAAAAAAAAAAAAAAAAAAAAAAAAAAAAAAAAAAAAAAAAAAAAAAAAAAAAAAAAAAAAAAAAAAAAAAAAAAAAAAAAAAAAAAAAAAAAAAAAAAAAAAAAAAAAAAAAAAAAAAAAAAAAAAAAAAAAAAAAAAAAAAAAAAAAAAAAAAAAAAAAAAAAAAAAAAAAAAAAAAAAAAAAAAAAAAAAAAAAAAAAAAAAAAAAAAAAAAAAAAAAAAAAAAAAAAAAAAAAAAAAAAAAAAAAAAAAAAAAAAAAAAAAAAAAAAAAAAAAAAAAAAAAAAAAAAAAAAAAAAAAAAAAAAAAAAAAAAAAAAAAAAAAAAAAAAAAAAAAAAAAAAAAAAAAAAAAAAAAAAAAAAAAAAAAAAAAAAAAAAAAAAAAAAAAAAAAAAAAAAAAAAAAAAAAAAAAAAAAAAAAAAAAAAAAAAAAAAAAAAAAAAAAAAAAAAAAAAAAAAAAAAAAAAAAAAAAAAAAAAAAAAAAAAAAAAAAAAAAAAAAAAAAAAAAAAAAAAAAAAAAAAAAAAAAAAAAAAAAAAAAAAAAAAAAAAAAAAAAAAAAAAAAAAAAAAAAAAAAAAAAAAAAAAAAAAAAAAAAAAAAAAAAAAAAAAAAAAAAAAAAAAAAAAAAAAAAAAAAAAAAAAAAAAAAAAAAAAAAAAAAAAAAAAAAAAAAAAAAAAAAAAAAAAAAAAAAAAAAAAAAAAAAAAAAAAAAAAAAAAAAAAAAAAAAAAAAAAAAAAAAAAAAAAAAAAAAAAAAAAAAAAAAAAAAAAAAAAAAAAAAAAAAAAAAAAAAAAAAAAAAAAAAAAAAAAAAAAAAAAAAAAAAAAAAAAAAAAAAAAAAAAAAAAAAAAAAAAAAAAAAAAAAAAAAAAAAAAAAAAAAAAAAAAAAAAAAAAAAAAAAAAAAAAAAAAAAAAAAAAAAAAAAAAAAAAAAAAAAAAAAAAAAAAAAAAAAAAAAAAAAAAAAAAAAAAAAAAAAAAAAAAAAAAAAAAAAAAAAAAAAAAAAAAAAAAAAAAAAAAAAAAAAAAAAAAAAAAAAAAAAAAAAAAAAAAAAAAAAAAAAAAAAAAAAAAAAAAAAAAAAAAAAAAAAAAAAAAAAAAAAAAAAAAAAAAAAAAAAAAAAAAAAAAAAAAAAAAAAAAAAAAAAAAAAAAAAAAAAAAAAAAAAAAAAAAAAAAAAAAAAAAAAAAAAAAAAAAAAAAAAAAAAAAAAAAAAAAAAAAAAAAAAAAAAAAAAAAAAAAAAAAAAAAAAAAAAAAAAAAAAAAAAAAAAAAAAAAAAAAAAAAAAAAAAAAAAAAAAAAAAAAAAAAAAAAAAAAAAAAAAAAAAAAAAAAAAAAAAAAAAAAAAAAAAAAAAAAAAAAAAAAAAAAAAAAAAAAAAAAAAAAAAAAAAAAAAAAAAAAAAAAAAAAAAAAAAAAAAAAAAAAAAAAAAAAAAAAAAAAAAAAAAAAAAAAAAAAAAAAAAAAAAAAAAAAAAAAAAAAAAAAAAAAAAAAAAAAAAAAAAAAAAAAAAAAAAAAAAAAAAAAAAAAAAAAAAAAAAAAAAAAAAAAAAAAAAAAAAAAAAAAAAAAAAAAAAAAAAAAAAAAAAAAAAAAAAAAAAAAAAAAAAAAAAAAAAAAAAAAAAAAAAAAAAAAAAAAAAAAAAAAAAAAAAAAAAAAAAAAAAAAAAAAAAAAAAAAAAAAAAAAAAAAAAAAAAAAAAAAAAAAAAAAAAAAAAAAAAAAAAAAAAAAAAAAAAAAAAAAAAAAAAAAAAAAAAAAAAAAAAAAAAAAAAAAAAAAAAAAAAAAAAAAAAAAAAAAAAAAAAAAAAAAAAAAAAAAAAAAAAAAAAAAAAAAAAAAAAAAAAAAAAAAAAAAAAAAAAAAAAAAAAAAAAAAAAAAAAAAAAAAAAAAAAAAAAAAAAAAAAAAAAAAAAAAAAAAAAAAAAAAAAAAAAAAAAAAAAAAAAAAAAAAAAAAAAAAAAAAAAAAAAAAAAAAAAAAAAAAAAAAAAAAAAAAAAAAAAAAAAAAAAAAAAAAAAAAAAAAAAAAAAAAAAAAAAAAAAAAAAAAAAAAAAAAAAAAAAAAAAAAAAAAAAAAAAAAAAAAAAAAAAAAAAAAAAAAAAAAAAAAAAAAAAAAAAAAAAAAAAAAAAAAAAAAAAAAAAAAAAAAAAAAAAAAAAAAAAAAAAAAAAAAAAAAAAAAAAAAAAAAAAAAAAAAAAAAAAAAAAAAAAAAAAAAAAAAAAAAAAAAAAAAAAAAAAAAAAAAAAAAAAAAAAAAAAAAAAAAAAAAAAAAAAAAAAAAAAAAAAAAAAAAAAAAAAAAAAAAAAAAAAAAAAAAAAAAAAAAAAAAAAAAAAAAAAAAAAAAAAAAAAAAAAAAAAAAAAAAAAAAAAAAAAAAAAAAAAAAAAAAAAAAAAAAAAAAAAAAAAAAAAAAAAAAAAAAAAAAAAAAAAAAAAAAAAAAAAAAAAAAAAAAAAAAAAAAAAAAAAAAAAAAAAAAAAAAAAAAAAAAAAAAAAAAAAAAAAAAAAAAAAAAAAAAAAAAAAAAAAAAAAAAAAAAAAAAAAAAAAAAAAAAAAAAAAAAAAAAAAAAAAAAAAAAAAAAAAAAAAAAAAAAAAAAAAAAAAAAAAAAAAAAAAAAAAAAAAAAAAAAAAAAAAAAAAAAAAAAAAAAAAAAAAAAAAAAAAAAAAAAAAAAAAAAAAAAAAAAAAAAAAAAAAAAAAAAAAAAAAAAAAAAAAAAAAAAAAAAAAAAAAAAAAAAAAAAAAAAAAAAAAAAAAAAAAAAAAAAAAAAAAAAAAAAAAAAAAAAAAAAAAAAAAAAAAAAAAAAAAAAAAAAAAAAAAAAAAAAAAAAAAAAAAAAAAAAAAAAAAAAAAAAAAAAAAAAAAAAAAAAAAAAAAAAAAAAAAAAAAAAAAAAAAAAAAAAAAAAAAAAAAAAAAAAAAAAAAAAAAAAAAAAAAAAAAAAAAAAAAAAAAAAAAAAAAAAAAAAAAAAAAAAAAAAAAAAAAAAAAAAAAAAAAAAAAAAAAAAAAAAAAAAAAAAAAAAAAAAAAAAAAAAAAAAAAAAAAAAAAAAAAAAAAAAAAAAAAAAAAAAAAAAAAAAAAAAAAAAAAAAAAAAAAAAAAAAAAAAAAAAAAAAAAAAAAAAAAAAAAAAAAAAAAAAAAAAAAAAAAAAAAAAAAAAAAAAAAAAAAAAAAAAAAAAAAAAAAAAAAAAAAAAAAAAAAAAAAAAAAAAAAAAAAAAAAAAAAAAAAAAAAAAAAAAAAAAAAAAAAAAAAAAAAAAAAAAAAAAAAAAAAAAAAAAAAAAAAAAAAAAAAAAAAAAAAAAAAAAAAAAAAAAAAAAAAAAAAAAAAAAAAAAAAAAAAAAAAAAAAAAAAAAAAAAAAAAAAAAAAAAAAAAAAAAAAAAAAAAAAAAAAAAAAAAAAAAAAAAAAAAAAAAAAAAAAAAAAAAAAAAAAAAAAAAAAAAAAAAAAAAAAAAAAAAAAAAAAAAAAAAAAAAAAAAAAAAAAAAAAAAAAAAAAAAAAAAAAAAAAAAAAAAAAAAAAAAAAAAAAAAAAAAAAAAAAAAAAAAAAAAAAAAAAAAAAAAAAAAAAAAAAAAAAAAAAAAAAAAAAAAAAAAAAAAAAAAAAAAAAAAAAAAAAAAAAAAAAAAAAAAAAAAAAAAAAAAAAAAAAAAAAAAAAAAAAAAAAAAAAAAAAAAAAAAAAAAAAAAAAAAAAAAAAAAAAAAAAAAAAAAAAAAAAAAAAAAAAAAAAAAAAAAAAAAAAAAAAAAAAAAAAAAAAAAAAAAAAAAAAAAAAAAAAAAAAAAAAAAAAAAAAAAAAAAAAAAAAAAAAAAAAAAAAAAAAAAAAAAAAAAAAAAAAAAAAAAAAAAAAAAAAAAAAAAAAAAAAAAAAAAAAAAAAAAAAAAAAAAAAAAAAAAAAAAAAAAAAAAAAAAAAAAAAAAAAAAAAAAAAAAAAAAAAAAAAAAAAAAAAAAAAAAAAAAAAAAAAAAAAAAAAAAAAAAAAAAAAAAAAAAAAAAAAAAAAAAAAAAAAAAAAAAAAAAAAAAAAAAAAAAAAAAAAAAAAAAAAAAAAAAAAAAAAAAAAAAAAAAAAAAAAAAAAAAAAAAAAAAAAAAAAAAAAAAAAAAAAAAAAAAAAAAAAAAAAAAAAAAAAAAAAAAAAAAAAAAAAAAAAAAAAAAAAAAAAAAAAAAAAAAAAAAAAAAAAAAAAAAAAAAAAAAAAAAAAAAAAAAAAAAAAAAAAAAAAAAAAAAAAAAAAAAAAAAAAAAAAAAAAAAAAAAAAAAAAAAAAAAAAAAAAAAAAAAAAAAAAAAAAAAAAAAAAAAAAAAAAAAAAAAPZYQByfJIe80nOYQaxuCWxrhxh/8LknUejAGQ1Y7OVSznfnIAx+L+n6I5W+gd1oKVXCPlm2TrEI/HOigmRwuGEvbsg=</c2pa:manifest></metadata>
  <title>simpleeditor</title>
  <rect x="-10" y="-10" width="384.15" height="75.85" rx="12" fill="#FBFAF7"></rect>
  <rect x="0" y="0.00" width="357.15" height="2" fill="#C9C3B6"></rect>
  <rect x="0" y="10.19" width="357.15" height="2" fill="#C9C3B6"></rect>
  <rect x="0" y="20.38" width="357.15" height="2" fill="#C9C3B6"></rect>
  <rect x="0" y="30.58" width="357.15" height="2" fill="#C9C3B6"></rect>
  <rect x="0" y="40.77" width="357.15" height="2" fill="#C9C3B6"></rect>
  <rect x="186.43" y="0.00" width="2" height="42.77" fill="#1B1A17"></rect>
  <rect x="350.15" y="0.00" width="2" height="42.77" fill="#1B1A17"></rect>
  <rect x="357.15" y="0.00" width="7" height="42.77" fill="#1B1A17"></rect>
  <path fill="#1B1A17" transform="translate(10.00 41.77) scale(0.064 -0.064)" d="M256 -13Q206 -13 164.5 -2Q123 9 94.5 31.5Q66 54 51.5 89Q37 124 40 172L109 181Q105 134 123 105.5Q141 77 176.5 63.5Q212 50 258 50Q324 50 359 72.5Q394 95 394 133Q394 164 374 181.5Q354 199 320.5 208Q287 217 245 226Q209 233 173 242Q137 251 108 266.5Q79 282 62.5 308.5Q46 335 46 375Q46 421 70 455.5Q94 490 138.5 508.5Q183 527 243 527Q302 527 348 508Q394 489 419.5 450Q445 411 444 353L377 340Q379 383 361.5 410Q344 437 312.5 450Q281 463 239 463Q183 463 150.5 441Q118 419 118 379Q118 348 137.5 331Q157 314 191 304.5Q225 295 265 288Q303 281 338.5 272.5Q374 264 403 248Q432 232 449 205Q466 178 466 135Q466 88 440 55Q414 22 367 4.5Q320 -13 256 -13Z"></path>
  <path fill="#1B1A17" transform="translate(40.71 41.77) scale(0.064 -0.064)" d="M62 0L62 514L136 514L136 0ZM100 594Q74.03 594 61.02 605.5Q48 617 48 637.47Q48 658.46 61.44 669.23Q74.88 680 100.47 680Q126.62 680 139.31 669Q152 658 152 637Q152 616.58 138.73 605.29Q125.46 594 100 594Z"></path>
  <path fill="#D9481F" transform="translate(52.18 41.77) scale(0.064 -0.064)" d="M63 0L63 255L61 514L133 514L117 295L129 295Q138 375 159.5 425.5Q181 476 215.5 501.5Q250 527 298 527Q351 527 382.5 499.5Q414 472 427.5 420Q441 368 438 296L448 296Q457 374 477.5 424.5Q498 475 534.5 501Q571 527 621 527Q661 527 690.5 511.5Q720 496 740.5 466Q761 436 771 390Q781 344 781 285L781 0L707 0L707 272Q707 336 696 377Q685 418 663.5 438Q642 458 606 458Q562 458 529 425Q496 392 478.5 332.5Q461 273 458 195L458 0L385 0L385 272Q385 335 374 376Q363 417 341 437.5Q319 458 285 458Q240 458 208 425Q176 392 157.5 332.5Q139 273 137 193L137 0Z"></path>
  <path fill="#1B1A17" transform="translate(104.41 41.77) scale(0.064 -0.064)" d="M61 -146L62 268L61 514L132 514L121 359L131 359Q145 417 169 453.5Q193 490 228.5 508.5Q264 527 309 527Q372 527 418.5 495.5Q465 464 490 404.5Q515 345 515 259Q515 173 490.5 112.5Q466 52 420.5 19.5Q375 -13 314 -13Q260 -13 222 12Q184 37 161 80.5Q138 124 130 179L118 178Q123 138 127 104Q131 70 133.5 39.5Q136 9 136 -16L136 -146ZM298 55Q343 55 375 80Q407 105 424 150.5Q441 196 441 260Q441 320 424.5 364.5Q408 409 376.5 433.5Q345 458 299 458Q258 458 227.5 440Q197 422 177.5 394Q158 366 148 333.5Q138 301 138 272L138 261Q138 243 143 217.5Q148 192 159 163Q170 134 188.5 109.5Q207 85 234 70Q261 55 298 55Z"></path>
  <path fill="#1B1A17" transform="translate(139.09 41.77) scale(0.064 -0.064)" d="M62 0L62 683L136 683L136 0Z"></path>
  <path fill="#D9481F" transform="translate(150.53 41.77) scale(0.064 -0.064)" d="M285 -13Q228 -13 182.5 5.5Q137 24 105.5 58.5Q74 93 58.5 142Q43 191 43 250Q43 309 58 359Q73 409 103 447Q133 485 177 506Q221 527 278 527Q328 527 368.5 510Q409 493 437 459.5Q465 426 479.5 376Q494 326 491 261L89 255L89 312L441 316L419 281Q421 336 405 376.5Q389 417 357 439Q325 461 278 461Q227 461 190.5 435.5Q154 410 135 362.5Q116 315 116 252Q116 157 160 104Q204 51 289 51Q328 51 355 62.5Q382 74 398.5 93Q415 112 423 134Q431 156 433 176L501 167Q498 125 481 92.5Q464 60 436 36Q408 12 370.5 -0.5Q333 -13 285 -13Z"></path>
  <path fill="#1B1A17" transform="translate(188.43 41.77) scale(0.064 -0.064)" d="M285 -13Q228 -13 182.5 5.5Q137 24 105.5 58.5Q74 93 58.5 142Q43 191 43 250Q43 309 58 359Q73 409 103 447Q133 485 177 506Q221 527 278 527Q328 527 368.5 510Q409 493 437 459.5Q465 426 479.5 376Q494 326 491 261L89 255L89 312L441 316L419 281Q421 336 405 376.5Q389 417 357 439Q325 461 278 461Q227 461 190.5 435.5Q154 410 135 362.5Q116 315 116 252Q116 157 160 104Q204 51 289 51Q328 51 355 62.5Q382 74 398.5 93Q415 112 423 134Q431 156 433 176L501 167Q498 125 481 92.5Q464 60 436 36Q408 12 370.5 -0.5Q333 -13 285 -13Z"></path>
  <path fill="#1B1A17" transform="translate(221.42 41.77) scale(0.064 -0.064)" d="M250 -13Q190 -13 144 17.5Q98 48 71 108.5Q44 169 44 257Q44 341 69.5 401.5Q95 462 140.5 494.5Q186 527 248 527Q303 527 340 502.5Q377 478 399 434.5Q421 391 430 333L443 333Q437 375 433 411Q429 447 426.5 477.5Q424 508 424 534L424 683L499 683L498 244L499 0L429 0L440 162L428 162Q414 106 391 67Q368 28 333 7.5Q298 -13 250 -13ZM260 53Q303 53 333.5 73.5Q364 94 383.5 125Q403 156 413 190Q423 224 423 250L423 259Q423 275 417.5 300Q412 325 401.5 352Q391 379 372.5 404Q354 429 327 444Q300 459 264 459Q219 459 186.5 434Q154 409 136.5 363.5Q119 318 119 254Q119 193 135.5 148Q152 103 183.5 78Q215 53 260 53Z"></path>
  <path fill="#D9481F" transform="translate(256.05 41.77) scale(0.064 -0.064)" d="M62 0L62 514L136 514L136 0ZM100 594Q74.03 594 61.02 605.5Q48 617 48 637.47Q48 658.46 61.44 669.23Q74.88 680 100.47 680Q126.62 680 139.31 669Q152 658 152 637Q152 616.58 138.73 605.29Q125.46 594 100 594Z"></path>
  <path fill="#1B1A17" transform="translate(267.52 41.77) scale(0.064 -0.064)" d="M220 -9Q155 -9 121.5 28Q88 65 88 137L88 450L17 450L17 510L55 510Q80 512 91.5 523.5Q103 535 105 558L112 625L160 625L160 514L305 514L305 449L160 449L160 138Q160 97 178.5 78.5Q197 60 231 60Q249 60 269.5 65.5Q290 71 306 84L306 9Q284 1 262.5 -4Q241 -9 220 -9Z"></path>
  <path fill="#1B1A17" transform="translate(286.26 41.77) scale(0.064 -0.064)" d="M288 -13Q217 -13 162 18Q107 49 75 110Q43 171 43 258Q43 347 75 407Q107 467 162 497Q217 527 285 527Q354 527 409 496Q464 465 496.5 404.5Q529 344 529 254Q529 166 497.5 106.5Q466 47 411 17Q356 -13 288 -13ZM290 52Q340 52 377.5 75.5Q415 99 434.5 144Q454 189 454 253Q454 316 434 363Q414 410 375 435.5Q336 461 284 461Q233 461 196 436.5Q159 412 138 367Q117 322 117 260Q117 163 163 107.5Q209 52 290 52Z"></path>
  <path fill="#1B1A17" transform="translate(321.57 41.77) scale(0.064 -0.064)" d="M62 0L62 256L61 514L133 514L116 293L129 293Q136 368 155.5 419.5Q175 471 206.5 498Q238 525 281 525Q294 525 308.5 522.5Q323 520 338 514L334 438Q318 444 304.5 446.5Q291 449 277 449Q236 449 206.5 418Q177 387 159.5 331Q142 275 137 198L137 0Z"></path>
</svg>